HIERARCHY
ROOT Hips
{
	OFFSET	0.00	0.00	0.00
	CHANNELS 6 Xposition Yposition Zposition Zrotation Xrotation Yrotation
	JOINT LeftUpLeg
	{
		OFFSET	 0.126116	-0.014019	-0.065224
		CHANNELS 3 Zrotation Xrotation Yrotation
		JOINT LeftLeg
		{
			OFFSET	 0.000000	 0.000000	 0.569914
			CHANNELS 3 Zrotation Xrotation Yrotation
			JOINT LeftFoot
			{
				OFFSET	 0.000000	 0.000000	 0.544423
				CHANNELS 3 Zrotation Xrotation Yrotation
				JOINT LeftToeBase
				{
					OFFSET	 0.000000	 0.000000	 0.207117
					CHANNELS 3 Zrotation Xrotation Yrotation
					End Site
					{
						OFFSET	 0.000000	 0.000000	 0.207117
					}
				}
			}
		}
	}
	JOINT RightUpLeg
	{
		OFFSET	-0.124023	-0.008373	-0.065224
		CHANNELS 3 Zrotation Xrotation Yrotation
		JOINT RightLeg
		{
			OFFSET	 0.000000	 0.000000	 0.570047
			CHANNELS 3 Zrotation Xrotation Yrotation
			JOINT RightFoot
			{
				OFFSET	 0.000000	 0.000000	 0.544354
				CHANNELS 3 Zrotation Xrotation Yrotation
				JOINT RightToeBase
				{
					OFFSET	 0.000000	 0.000000	 0.207540
					CHANNELS 3 Zrotation Xrotation Yrotation
					End Site
					{
						OFFSET	 0.000000	 0.000000	 0.207540
					}
				}
			}
		}
	}
	JOINT Spine
	{
		OFFSET	 0.000184	-0.007763	 0.117403
		CHANNELS 3 Zrotation Xrotation Yrotation
		JOINT Spine1
		{
			OFFSET	 0.000000	 0.000000	 0.137269
			CHANNELS 3 Zrotation Xrotation Yrotation
			JOINT Spine2
			{
				OFFSET	 0.000000	 0.000000	 0.156879
				CHANNELS 3 Zrotation Xrotation Yrotation
				JOINT LeftShoulder
				{
					OFFSET	 0.080501	-0.002496	 0.160144
					CHANNELS 3 Zrotation Xrotation Yrotation
					JOINT LeftArm
					{
						OFFSET	 0.000000	 0.000000	 0.164363
						CHANNELS 3 Zrotation Xrotation Yrotation
						JOINT LeftForeArm
						{
							OFFSET	 0.000000	 0.000000	 0.364576
							CHANNELS 3 Zrotation Xrotation Yrotation
							JOINT LeftHand
							{
								OFFSET	 0.000000	 0.000000	 0.360812
								CHANNELS 3 Zrotation Xrotation Yrotation
								JOINT LeftHandIndex1
								{
									OFFSET	 0.000000	 0.000000	 0.086006
									CHANNELS 3 Zrotation Xrotation Yrotation
									JOINT LeftHandIndex2
									{
										OFFSET	 0.000000	 0.000000	 0.047236
										CHANNELS 3 Zrotation Xrotation Yrotation
										JOINT LeftHandIndex3
										{
											OFFSET	-0.004284	-0.000551	 0.038166
											CHANNELS 3 Zrotation Xrotation Yrotation
											End Site
											{
												OFFSET	-0.004284	-0.000551	 0.038166
											}
										}
									}
								}
							}
						}
					}
				}
				JOINT Neck
				{
					OFFSET	 0.000000	 0.000000	 0.176489
					CHANNELS 3 Zrotation Xrotation Yrotation
					JOINT Head
					{
						OFFSET	 0.000000	-0.001747	 0.077940
						CHANNELS 3 Zrotation Xrotation Yrotation
						End Site
						{
							OFFSET	 0.000000	-0.001747	 0.077940
						}
					}
				}
				JOINT RightShoulder
				{
					OFFSET	-0.080363	 0.000306	 0.159706
					CHANNELS 3 Zrotation Xrotation Yrotation
					JOINT RightArm
					{
						OFFSET	 0.000000	 0.000000	 0.164196
						CHANNELS 3 Zrotation Xrotation Yrotation
						JOINT RightForeArm
						{
							OFFSET	 0.000000	 0.000000	 0.365611
							CHANNELS 3 Zrotation Xrotation Yrotation
							JOINT RightHand
							{
								OFFSET	 0.000000	 0.000000	 0.360648
								CHANNELS 3 Zrotation Xrotation Yrotation
								JOINT RightHandIndex1
								{
									OFFSET	 0.000000	 0.000000	 0.069977
									CHANNELS 3 Zrotation Xrotation Yrotation
									JOINT RightHandIndex2
									{
										OFFSET	 0.000000	 0.000000	 0.052305
										CHANNELS 3 Zrotation Xrotation Yrotation
										JOINT RightHandIndex3
										{
											OFFSET	 0.009002	-0.000782	 0.042196
											CHANNELS 3 Zrotation Xrotation Yrotation
											End Site
											{
												OFFSET	 0.009002	-0.000782	 0.042196
											}
										}
									}
								}
							}
						}
					}
				}
			}
		}
	}
}
MOTION
Frames:    5
Frame Time: 0.03333334
 0.011568	 0.008854	 1.199158	 5.121377	-0.956595	-2.724232	 11.789040	-9.006056	-175.475300	 1.045077	-38.819360	 0.434034	 70.960040	 83.595810	-75.021680	-2.369371	 31.619860	-0.070030	-19.187980	-33.809650	-177.372100	 9.854999	-45.717180	 7.640312	 3.876671	 72.199560	 1.692845	 2.358917	 33.007800	 0.103400	-15.276110	 8.386017	 2.018153	-2.223517	 2.652842	-1.463278	 3.189918	-2.669334	 1.632404	-93.985890	 58.960910	 175.287700	 8.638011	 28.416910	-41.985740	-5.502986	 0.154423	-2.795558	-3.314961	-21.650770	-9.028619	-4.869256	 19.266180	-2.792469	-3.876958	 21.531200	 2.198109	-4.805878	 5.573564	 0.145329	-0.064646	-5.086209	 0.194504	 1.074167	 1.715151	 2.680520	 89.763400	 61.672660	 179.955400	-20.039580	 53.025550	 11.964560	 2.176890	-0.427840	 7.073583	-2.729294	-7.113839	 0.777594	 6.289269	 24.474800	-0.538696	 1.933908	 44.306340	-7.036214	 0.599928	 23.952120	 3.531112
 0.010641	-0.010224	 1.197921	 5.378232	-0.703402	-2.735462	 11.532100	-8.134558	-175.772200	 1.146960	-38.433900	 0.493732	 75.875760	 84.043400	-79.973530	-2.368927	 31.693490	-0.071708	-20.197410	-34.628150	-178.125800	 9.713779	-42.495510	 7.116979	 1.736205	 71.565040	 3.791389	 2.358971	 33.000920	 0.103239	-17.498580	 8.186170	 1.942795	-2.282122	 2.846004	-1.401971	 3.113422	-2.924607	 1.610217	-94.050630	 58.971360	 175.148300	 7.946372	 27.400450	-42.293620	-6.597610	 0.254826	-3.355152	-3.803931	-22.277140	-9.546781	-4.866977	 19.324410	-2.796294	-3.873302	 21.577890	 2.194395	-4.805053	 5.583268	 0.144758	-0.051341	-5.095940	 0.213582	 1.031192	 1.627444	 2.639347	 89.738250	 61.718130	 179.895200	-19.973150	 53.542980	 10.982970	 2.946941	-0.280659	 7.719029	-2.302390	-7.537617	 0.767316	 6.282909	 24.020350	-0.545051	 1.987599	 43.861810	-7.083906	 0.698401	 23.515960	 3.481966
 0.007089	-0.076066	 1.191935	 6.088421	 0.126084	-2.898409	 10.815330	-4.866544	-176.720800	 1.428965	-36.718170	 0.643516	 97.153280	 85.249150	-101.328300	-2.367079	 31.995110	-0.078556	-23.032350	-35.622100	 179.359700	 9.208228	-29.634660	 4.965785	-3.314093	 68.710310	 8.268044	 2.359910	 32.861090	 0.099989	-24.529480	 7.474584	 1.794976	-2.460920	 3.488377	-1.178305	 2.805349	-3.743035	 1.492713	-94.256360	 58.991230	 174.706900	 5.860860	 24.303950	-43.234460	-10.372150	 0.726779	-5.182960	-5.651487	-24.400450	-10.923810	-4.856295	 19.581320	-2.809925	-3.859207	 21.757240	 2.180074	-4.799826	 5.644897	 0.141148	-0.015881	-5.141224	 0.276978	 0.810879	 1.344764	 2.533545	 89.637340	 61.869840	 179.652100	-19.427920	 54.729080	 9.841071	 5.315029	 0.666898	 5.242247	-1.062043	-8.874049	 0.558487	 6.257986	 22.385590	-0.581293	 2.160001	 42.381230	-7.236183	 1.057410	 21.897590	 3.308080
 0.002563	-0.140143	 1.180743	 6.432379	 0.830893	-3.326362	 10.554700	-1.403112	-177.519600	 1.593177	-35.072210	 0.712850	 126.534500	 85.702490	-130.697700	-2.362512	 32.708980	-0.094936	-24.183580	-38.141590	 177.393200	 9.238546	-21.977410	 3.799679	-4.619655	 69.964310	 8.503610	 2.357859	 33.162740	 0.107008	-31.252170	 6.653592	 1.895852	-2.533920	 4.330921	-0.867260	 2.407603	-4.582607	 1.266291	-94.422670	 58.974730	 174.354900	 4.407128	 22.127580	-44.070090	-14.745350	 1.472336	-7.100870	-8.090533	-26.665430	-11.577620	-4.836444	 20.006830	-2.821532	-3.837425	 22.032940	 2.157947	-4.783399	 5.838092	 0.129794	 0.008020	-5.228230	 0.330284	 0.450046	 1.039959	 2.470664	 89.501790	 62.006290	 179.322800	-18.393970	 55.750540	 6.733736	 7.353625	 1.396431	 7.167454	-0.122225	-10.315320	-0.268824	 6.218675	 20.212670	-0.662264	 2.388515	 40.286350	-7.435831	 1.533896	 19.682290	 3.090659
-0.002055	-0.193098	 1.168890	 6.596136	 1.081936	-3.641305	 10.392600	 1.949564	-178.338600	 1.714717	-33.412560	 0.750100	 147.281600	 85.861330	-151.389000	-2.352692	 34.114700	-0.127765	-23.933680	-42.102970	 176.351200	 9.544936	-21.409680	 3.796393	-3.258981	 75.800080	 6.211349	 2.346999	 34.648580	 0.142084	-36.203310	 6.217899	 2.005316	-2.535284	 5.027557	-0.618854	 2.030012	-5.290699	 1.046321	-94.500690	 58.942440	 174.194000	 3.362734	 21.092630	-44.559800	-18.010900	 2.254152	-8.609221	-10.387680	-28.239810	-12.489990	-4.828887	 20.332350	-2.874617	-3.813579	 22.332450	 2.133722	-4.756908	 6.148508	 0.111418	 0.048035	-5.318532	 0.348413	 0.115599	 0.790762	 2.322856	 89.412400	 62.033800	 179.106100	-17.100680	 56.221480	 4.034126	 8.869580	 2.166622	 8.680223	 0.711129	-11.779020	-1.170718	 6.182973	 18.127870	-0.713728	 2.649978	 37.686300	-7.660790	 1.965093	 17.613060	 2.907708
